<?xml version="1.0" encoding="utf-8"?>
<svg width="646" height="266" viewBox="0 0 646 266" fill="none" xmlns="http://www.w3.org/2000/svg">
  <defs/>
  <path d="M 314.564 111.364 C 318.983 111.209 323.089 109.629 327.293 108.511 C 329.112 108.029 330.245 108.357 331.535 109.669 C 336.482 114.699 341.506 119.65 346.61 124.528 C 347.881 125.741 348.331 126.801 347.764 128.556 C 346.707 131.775 345.906 135.071 345.104 138.346 C 343.931 143.165 344.948 147.541 348.273 151.261 C 350.071 153.285 352.026 155.194 354.039 157.005 C 357.832 160.436 362.309 161.457 367.296 160.281 C 370.405 159.549 373.494 158.719 376.563 157.853 C 377.717 157.525 378.537 157.621 379.458 158.545 C 384.815 163.943 390.229 169.262 395.704 174.544 C 396.662 175.468 396.723 176.279 396.389 177.397 C 395.47 180.576 394.609 183.777 393.769 186.955 C 392.439 191.968 393.651 196.42 397.094 200.238 C 399.126 202.473 401.237 204.65 403.525 206.616 C 407.083 209.68 411.308 210.78 415.959 209.719 C 419.44 208.909 422.92 207.985 426.362 207.003 C 427.652 206.635 428.512 206.868 429.47 207.811 C 434.79 213.131 440.147 218.413 445.544 223.655 C 446.442 224.521 446.598 225.293 446.266 226.507 C 444.252 233.696 442.335 240.905 440.44 248.113 C 440.086 249.444 439.441 250.137 438.034 250.504 C 430.643 252.372 423.253 254.319 415.901 256.342 C 414.826 256.633 414.181 256.402 413.457 255.668 C 407.964 250.195 402.431 244.759 396.898 239.345 C 396.136 238.591 395.958 237.938 396.253 236.895 C 397.269 233.504 398.148 230.073 399.068 226.662 C 400.416 221.67 399.458 217.158 395.92 213.362 C 392.576 209.757 389.546 205.71 384.345 204.382 C 381.862 203.746 379.418 203.686 376.954 204.323 C 373.416 205.228 369.856 206.134 366.338 207.118 C 365.144 207.444 364.323 207.253 363.425 206.366 C 358.048 200.989 352.631 195.649 347.196 190.369 C 346.278 189.461 346.161 188.633 346.491 187.477 C 347.528 183.931 348.448 180.363 349.425 176.8 C 350.422 173.137 350.285 169.514 348.213 166.315 C 345.3 161.823 341.782 157.776 336.658 155.541 C 333.863 154.325 330.91 154.191 327.938 154.961 C 324.537 155.829 321.135 156.677 317.771 157.621 C 316.636 157.949 315.894 157.776 315.073 156.946 C 309.636 151.53 304.163 146.134 298.669 140.794 C 297.828 139.966 297.691 139.253 298.004 138.155 C 299.02 134.609 299.998 131.043 300.917 127.476 C 302.033 123.178 301.25 119.131 298.473 115.7 C 296.303 113.002 293.919 110.399 291.142 108.279 C 287.563 105.524 283.497 104.521 279.018 105.601 C 275.832 106.373 272.645 107.124 269.537 108.087 C 268.168 108.511 267.406 108.125 266.486 107.221 C 261.169 101.899 255.791 96.639 250.415 91.376 C 249.554 90.548 249.222 89.835 249.612 88.562 C 250.59 85.403 251.393 82.201 252.193 78.982 C 253.466 73.913 252.389 69.366 248.753 65.511 C 246.934 63.602 245.136 61.676 243.18 59.902 C 239.174 56.239 234.48 54.949 229.123 56.374 C 225.956 57.204 222.787 58.012 219.659 58.919 C 218.486 59.246 217.686 59.111 216.786 58.205 C 211.429 52.828 206.012 47.488 200.557 42.189 C 199.658 41.32 199.424 40.511 199.754 39.336 C 201.769 32.07 203.764 24.804 205.68 17.518 C 206.012 16.283 206.657 15.802 207.851 15.494 C 215.084 13.606 222.378 11.677 229.669 9.692 C 230.942 9.347 231.841 9.559 232.799 10.502 C 238.117 15.821 243.454 21.122 248.87 26.344 C 249.887 27.329 249.965 28.176 249.612 29.39 C 248.596 32.938 247.579 36.502 246.719 40.087 C 245.585 44.849 246.837 49.088 250.102 52.713 C 251.647 54.427 253.347 56.047 255.008 57.666 C 259.116 61.693 263.963 63.004 269.596 61.481 C 272.978 60.576 276.399 59.785 279.763 58.804 C 280.896 58.474 281.62 58.63 282.44 59.458 C 287.877 64.874 293.349 70.27 298.844 75.63 C 299.665 76.44 299.843 77.132 299.51 78.269 C 298.395 82.027 297.437 85.825 296.459 89.623 C 295.405 93.649 296.009 97.487 298.433 100.838 C 300.701 103.963 303.458 106.737 306.627 109.032 C 308.953 110.707 311.651 111.441 314.564 111.364 Z" fill="#34EFAB" style=""/>
  <path d="M 331.028 55.7 C 327.117 56.067 322.854 57.608 318.495 58.744 C 316.714 59.208 315.562 58.996 314.232 57.646 C 309.187 52.501 304.026 47.47 298.844 42.458 C 297.828 41.477 297.535 40.629 297.925 39.259 C 299.959 32.09 301.933 24.9 303.831 17.691 C 304.164 16.401 304.769 15.821 306.08 15.494 C 313.313 13.644 320.548 11.717 327.743 9.75 C 329.091 9.384 330.029 9.519 331.066 10.56 C 336.307 15.841 341.624 21.046 346.961 26.229 C 347.979 27.212 348.273 28.1 347.842 29.468 C 346.865 32.629 346.062 35.828 345.242 39.029 C 343.892 44.192 345.046 48.781 348.702 52.693 C 350.345 54.447 352.046 56.162 353.843 57.743 C 357.853 61.289 362.487 62.465 367.725 61.077 C 371.03 60.211 374.374 59.381 377.659 58.438 C 378.773 58.108 379.495 58.265 380.318 59.093 C 385.753 64.508 391.207 69.905 396.723 75.245 C 397.66 76.151 397.698 76.92 397.368 78.077 C 395.373 85.266 393.438 92.457 391.56 99.663 C 391.228 100.918 390.603 101.572 389.311 101.899 C 382 103.77 374.686 105.677 367.412 107.645 C 366.122 107.99 365.262 107.875 364.306 106.912 C 358.986 101.592 353.648 96.312 348.232 91.087 C 347.256 90.144 347.119 89.313 347.49 88.042 C 348.468 84.804 349.289 81.527 350.13 78.251 C 351.263 73.818 350.638 69.654 347.764 66.031 C 345.554 63.236 342.973 60.75 340.158 58.532 C 337.714 56.606 334.801 55.738 331.028 55.681 L 331.028 55.7 Z" fill="#25A998" style=""/>
  <path d="M 314.154 210.181 C 318.787 209.969 323.107 208.273 327.545 207.136 C 329.226 206.712 330.245 206.962 331.417 208.158 C 336.54 213.323 341.741 218.431 346.98 223.5 C 347.999 224.484 348.252 225.37 347.861 226.739 C 345.826 233.908 343.911 241.117 341.995 248.325 C 341.682 249.501 341.154 250.08 339.902 250.407 C 332.512 252.295 325.141 254.262 317.79 256.265 C 316.598 256.594 315.836 256.478 314.915 255.554 C 309.558 250.175 304.142 244.838 298.688 239.555 C 297.768 238.668 297.592 237.878 297.925 236.722 C 298.921 233.254 299.9 229.764 300.761 226.256 C 302.01 221.205 300.545 216.831 297.005 213.111 C 295.519 211.531 293.936 210.046 292.372 208.544 C 288.424 204.747 283.732 203.514 278.393 204.824 C 275.068 205.633 271.746 206.461 268.46 207.426 C 267.17 207.811 266.329 207.657 265.371 206.693 C 260.072 201.374 254.715 196.092 249.3 190.85 C 248.342 189.924 248.126 189.076 248.48 187.804 C 250.492 180.635 252.427 173.426 254.343 166.218 C 254.637 165.08 255.087 164.406 256.358 164.079 C 263.827 162.188 271.275 160.224 278.706 158.18 C 279.976 157.833 280.681 158.161 281.541 158.989 C 286.858 164.291 292.216 169.591 297.612 174.814 C 298.591 175.757 298.786 176.588 298.413 177.84 C 297.456 181 296.654 184.201 295.755 187.4 C 294.561 191.659 295.09 195.688 297.67 199.292 C 300.016 202.568 302.95 205.363 306.235 207.754 C 308.542 209.43 311.239 210.22 314.154 210.181 Z" fill="#25A998" style=""/>
  <path d="M 446.304 28.697 C 444.662 34.768 442.688 41.091 441.319 47.548 C 440.498 51.441 438.757 53.272 434.729 54.042 C 428.474 55.257 422.373 57.184 416.213 58.898 C 414.846 59.285 413.985 59.034 412.969 58.012 C 407.728 52.731 402.411 47.527 397.073 42.324 C 396.153 41.437 395.841 40.666 396.233 39.336 C 398.265 32.167 400.18 24.957 402.077 17.75 C 402.431 16.438 403.075 15.783 404.502 15.435 C 411.757 13.623 418.97 11.677 426.167 9.713 C 427.554 9.326 428.454 9.596 429.45 10.599 C 434.71 15.859 440.028 21.064 445.328 26.306 C 445.895 26.865 446.793 27.329 446.324 28.697 L 446.304 28.697 Z" fill="#0C7585" style=""/>
  <path d="M 249.848 225.64 C 247.971 232.559 245.956 239.345 244.353 246.225 C 243.69 249.059 242.458 250.407 239.524 251.063 C 232.857 252.566 226.267 254.454 219.659 256.248 C 218.427 256.575 217.569 256.517 216.59 255.514 C 211.291 250.175 205.935 244.915 200.537 239.69 C 199.483 238.67 199.366 237.763 199.737 236.434 C 201.731 229.34 203.687 222.209 205.544 215.079 C 205.876 213.786 206.481 213.15 207.753 212.823 C 215.065 210.952 222.358 209.045 229.652 207.059 C 230.942 206.714 231.783 206.847 232.741 207.813 C 238.098 213.188 243.532 218.49 248.929 223.828 C 249.436 224.33 250.297 224.754 249.868 225.621 L 249.848 225.64 Z" fill="#0C7585" style=""/>
</svg>